<svg id="Layer_1" data-name="Layer 1" xmlns="http://www.w3.org/2000/svg" viewBox="0 0 90.51 123.98"><defs><style>.cls-1{fill:#fff;}.cls-1,.cls-2{stroke:#1d1d1b;stroke-miterlimit:10;}.cls-2{fill:#c6c6c5;stroke-width:0.5px;}</style></defs><title>404 wind turbine</title><path class="cls-1" d="M689.94,347.64c0-2.8-4.62-43.31-5.08-50s-4.35-5.77-4.86,0-3.87,44.5-4.17,47.12,3.12,10,3.12,10l6.37.14S690,349.31,689.94,347.64Z" transform="translate(-646.99 -292.5)"/><path class="cls-1" d="M686.2,370.2c2.42,1.26,39.6,13.43,45.58,16s7-1.36,2.2-4.46c-4-2.57-35.77-23-38.91-25.21-2.12-1.46-10-1.66-10-1.66l-3,5.78S684.75,369.45,686.2,370.2Z" transform="translate(-646.99 -292.5)"/><path class="cls-1" d="M679,354.74s-7-1.32-8.43-.48c-.86.52-5.72,6.14-11.78,10.71-3.43,3.18-2.8,4.14-3,4.44-.44.77-1,1.34-.67,2,.38.8,6.66-2.55,7-1.85s-1.06,3-2,4.16c-2.26,2.56-2.43,3.29-1.43,3.42a3.9,3.9,0,0,0,1-.21c.7-.2,1.48-.43,1.4-.15,3.28-.64,7.35-3.5,14.14-6.5,2.36-1,6.83-9.76,6.83-9.76Z" transform="translate(-646.99 -292.5)"/><path class="cls-1" d="M647.49,374.4c2.2,11.46,3.4,28.38,3.76,31.09,2.19,16.22,5,11.64,4.88-.28,0-2.75,1.42-16.95,1.48-27.19a4.25,4.25,0,0,1-2,1.76c-.58.23-.53.91-.79.8-1.51-.6-.24-7.95-1.22-8.29s-3.11,5.83-4.72,5.49C648,377.61,647.67,375.85,647.49,374.4Z" transform="translate(-646.99 -292.5)"/><path class="cls-2" d="M688.53,359.07c0,3.71-2.92,8.71-6.52,8.71s-6.53-5-6.53-8.71a6.53,6.53,0,1,1,13,0Z" transform="translate(-646.99 -292.5)"/><path class="cls-1" d="M636.84,420.63" transform="translate(-646.99 -292.5)"/></svg>